<svg width="24" height="24" viewBox="0 0 24 24" fill="none" xmlns="http://www.w3.org/2000/svg">
<path d="M14.945 1.25C13.578 1.25 12.475 1.25 11.608 1.367C10.708 1.487 9.94996 1.747 9.34796 2.348C8.82396 2.873 8.55796 3.518 8.41896 4.276C8.28396 5.013 8.25796 5.914 8.25196 6.996C8.2509 7.19491 8.3289 7.3861 8.46881 7.5275C8.60871 7.6689 8.79905 7.74894 8.99796 7.75C9.19688 7.75106 9.38806 7.67306 9.52947 7.53316C9.67087 7.39326 9.7509 7.20291 9.75196 7.004C9.75796 5.911 9.78596 5.136 9.89396 4.547C9.99896 3.981 10.166 3.652 10.409 3.409C10.686 3.132 11.075 2.952 11.809 2.853C12.564 2.752 13.565 2.75 15 2.75H16C17.436 2.75 18.437 2.752 19.192 2.853C19.926 2.952 20.314 3.133 20.592 3.409C20.868 3.686 21.048 4.074 21.147 4.809C21.249 5.563 21.25 6.565 21.25 8V16C21.25 17.435 21.249 18.436 21.147 19.192C21.048 19.926 20.868 20.314 20.591 20.591C20.314 20.868 19.926 21.048 19.192 21.147C18.437 21.248 17.436 21.25 16 21.25H15C13.565 21.25 12.564 21.248 11.808 21.147C11.075 21.048 10.686 20.867 10.409 20.591C10.166 20.347 9.99896 20.019 9.89396 19.453C9.78596 18.864 9.75796 18.089 9.75196 16.996C9.75144 16.8975 9.73152 16.8001 9.69334 16.7093C9.65517 16.6185 9.59948 16.5361 9.52947 16.4668C9.45945 16.3976 9.37648 16.3428 9.28528 16.3056C9.19409 16.2684 9.09646 16.2495 8.99796 16.25C8.89947 16.2505 8.80205 16.2704 8.71126 16.3086C8.62046 16.3468 8.53808 16.4025 8.46881 16.4725C8.39953 16.5425 8.34473 16.6255 8.30752 16.7167C8.27032 16.8079 8.25144 16.9055 8.25196 17.004C8.25796 18.086 8.28396 18.987 8.41896 19.724C8.55896 20.482 8.82396 21.127 9.34896 21.652C9.94996 22.254 10.709 22.512 11.609 22.634C12.475 22.75 13.578 22.75 14.945 22.75H16.055C17.423 22.75 18.525 22.75 19.392 22.634C20.292 22.512 21.05 22.254 21.652 21.652C22.254 21.05 22.512 20.292 22.634 19.392C22.75 18.525 22.75 17.422 22.75 16.055V7.945C22.75 6.578 22.75 5.475 22.634 4.608C22.513 3.708 22.254 2.95 21.652 2.348C21.05 1.746 20.292 1.488 19.392 1.367C18.525 1.25 17.422 1.25 16.055 1.25H14.945Z" fill="#AFB0AF"/>
<path d="M14.9996 11.2504C15.1985 11.2504 15.3893 11.3294 15.5299 11.47C15.6706 11.6107 15.7496 11.8015 15.7496 12.0004C15.7496 12.1993 15.6706 12.39 15.5299 12.5307C15.3893 12.6713 15.1985 12.7504 14.9996 12.7504H4.02658L5.98758 14.4304C6.13875 14.5598 6.23232 14.744 6.2477 14.9424C6.26308 15.1408 6.19901 15.3372 6.06958 15.4884C5.94016 15.6395 5.75598 15.7331 5.55756 15.7485C5.35915 15.7639 5.16275 15.6998 5.01158 15.5704L1.51158 12.5704C1.42925 12.5 1.36314 12.4125 1.31782 12.3141C1.27249 12.2157 1.24902 12.1087 1.24902 12.0004C1.24902 11.892 1.27249 11.785 1.31782 11.6866C1.36314 11.5882 1.42925 11.5008 1.51158 11.4304L5.01158 8.43036C5.08643 8.36628 5.17318 8.31756 5.26686 8.287C5.36054 8.25644 5.45932 8.24463 5.55756 8.25224C5.65581 8.25986 5.75159 8.28675 5.83944 8.33138C5.9273 8.37601 6.0055 8.43751 6.06958 8.51236C6.13367 8.58722 6.18238 8.67396 6.21294 8.76764C6.2435 8.86132 6.25531 8.9601 6.2477 9.05835C6.24009 9.15659 6.2132 9.25237 6.16856 9.34022C6.12393 9.42808 6.06243 9.50628 5.98758 9.57036L4.02758 11.2504H14.9996Z" fill="#AFB0AF"/>
</svg>
