<svg width="24" height="24" viewBox="0 0 24 24" fill="none" xmlns="http://www.w3.org/2000/svg">
<path d="M15 11C15.2652 11 15.5196 10.8946 15.7071 10.7071C15.8946 10.5196 16 10.2652 16 10C16 9.73478 15.8946 9.48043 15.7071 9.29289C15.5196 9.10536 15.2652 9 15 9C14.7348 9 14.4804 9.10536 14.2929 9.29289C14.1054 9.48043 14 9.73478 14 10C14 10.2652 14.1054 10.5196 14.2929 10.7071C14.4804 10.8946 14.7348 11 15 11ZM10 10C10 10.2652 9.89464 10.5196 9.70711 10.7071C9.51957 10.8946 9.26522 11 9 11C8.73478 11 8.48043 10.8946 8.29289 10.7071C8.10536 10.5196 8 10.2652 8 10C8 9.73478 8.10536 9.48043 8.29289 9.29289C8.48043 9.10536 8.73478 9 9 9C9.26522 9 9.51957 9.10536 9.70711 9.29289C9.89464 9.48043 10 9.73478 10 10Z" fill="#AFB0AF"/>
<path fill-rule="evenodd" clip-rule="evenodd" d="M8.24944 5.276V5C8.24944 4.00544 8.64453 3.05161 9.34779 2.34835C10.0511 1.64509 11.0049 1.25 11.9994 1.25C12.994 1.25 13.9478 1.64509 14.6511 2.34835C15.3544 3.05161 15.7494 4.00544 15.7494 5V5.276C16.4074 5.296 16.9944 5.333 17.5144 5.398C18.7154 5.55 19.6884 5.868 20.4394 6.602C20.6894 6.847 20.9124 7.118 21.1034 7.412C21.6754 8.292 21.7974 9.308 21.7104 10.516C21.6244 11.698 21.3284 13.182 20.9514 15.065L20.9314 15.16C20.6714 16.467 20.4634 17.507 20.2054 18.326C19.9404 19.168 19.6014 19.85 19.0354 20.402C18.8404 20.592 18.6304 20.764 18.4054 20.918C17.7534 21.365 17.0184 21.563 16.1404 21.658C15.2874 21.75 14.2274 21.75 12.8944 21.75H11.1044C9.77144 21.75 8.71144 21.75 7.85844 21.658C6.98044 21.563 6.24544 21.365 5.59344 20.918C5.36905 20.7644 5.15828 20.5917 4.96344 20.402C4.39744 19.85 4.05844 19.168 3.79344 18.326C3.53644 17.507 3.32844 16.467 3.06644 15.16L3.04744 15.065C2.67144 13.182 2.37444 11.698 2.28944 10.516C2.20144 9.308 2.32344 8.292 2.89544 7.412C3.08624 7.11835 3.30893 6.8467 3.55944 6.602C4.31144 5.868 5.28344 5.55 6.48444 5.398C7.00444 5.333 7.59144 5.296 8.24944 5.276ZM9.74944 5C9.74944 4.40326 9.9865 3.83097 10.4085 3.40901C10.8304 2.98705 11.4027 2.75 11.9994 2.75C12.5962 2.75 13.1685 2.98705 13.5904 3.40901C14.0124 3.83097 14.2494 4.40326 14.2494 5V5.252C13.8254 5.25 13.3774 5.25 12.9044 5.25H11.0944C10.6214 5.25 10.1744 5.25 9.74944 5.252V5ZM4.60744 7.675C5.02244 7.27 5.61544 7.02 6.67244 6.886C7.74244 6.751 9.16244 6.75 11.1484 6.75H12.8514C14.8374 6.75 16.2554 6.751 17.3264 6.886C18.3834 7.02 18.9764 7.27 19.3914 7.675C19.5624 7.842 19.7144 8.028 19.8454 8.229C20.1614 8.715 20.2904 9.346 20.2144 10.409C20.1364 11.485 19.8594 12.876 19.4704 14.824C19.1984 16.183 19.0054 17.144 18.7744 17.875C18.5494 18.592 18.3094 19.015 17.9884 19.328C17.8554 19.4577 17.7116 19.5758 17.5584 19.681C17.1884 19.934 16.7264 20.086 15.9794 20.167C15.2164 20.249 14.2364 20.25 12.8504 20.25H11.1494C9.76344 20.25 8.78344 20.249 8.01944 20.167C7.27344 20.087 6.81244 19.934 6.44244 19.681C6.28894 19.5755 6.14475 19.4571 6.01144 19.327C5.69044 19.014 5.45144 18.592 5.22544 17.875C4.99544 17.143 4.80144 16.183 4.53044 14.824C4.14044 12.876 3.86344 11.484 3.78644 10.408C3.70944 9.346 3.83844 8.715 4.15444 8.229C4.2849 8.02817 4.43716 7.84238 4.60844 7.675H4.60744Z" fill="#AFB0AF"/>
</svg>
