<svg width="24" height="24" viewBox="0 0 24 24" fill="none" xmlns="http://www.w3.org/2000/svg">
<path fill-rule="evenodd" clip-rule="evenodd" d="M12 1.25C10.7402 1.25 9.53204 1.75044 8.64124 2.64124C7.75045 3.53204 7.25 4.74022 7.25 6C7.25 7.25978 7.75045 8.46796 8.64124 9.35876C9.53204 10.2496 10.7402 10.75 12 10.75C13.2598 10.75 14.468 10.2496 15.3588 9.35876C16.2496 8.46796 16.75 7.25978 16.75 6C16.75 4.74022 16.2496 3.53204 15.3588 2.64124C14.468 1.75044 13.2598 1.25 12 1.25ZM8.75 6C8.75 5.13805 9.09241 4.3114 9.7019 3.7019C10.3114 3.09241 11.138 2.75 12 2.75C12.862 2.75 13.6886 3.09241 14.2981 3.7019C14.9076 4.3114 15.25 5.13805 15.25 6C15.25 6.86195 14.9076 7.6886 14.2981 8.2981C13.6886 8.90759 12.862 9.25 12 9.25C11.138 9.25 10.3114 8.90759 9.7019 8.2981C9.09241 7.6886 8.75 6.86195 8.75 6ZM12 12.25C9.96 12.25 8.078 12.72 6.678 13.52C5.3 14.308 4.25 15.51 4.25 17C4.25 18.49 5.3 19.692 6.678 20.48C8.078 21.28 9.961 21.75 12 21.75C14.04 21.75 15.922 21.28 17.322 20.48C18.7 19.692 19.75 18.49 19.75 17C19.75 15.51 18.7 14.308 17.322 13.52C15.922 12.72 14.039 12.25 12 12.25ZM5.75 17C5.75 16.28 6.267 15.483 7.422 14.823C8.556 14.175 10.173 13.75 12 13.75C13.827 13.75 15.444 14.175 16.578 14.823C17.733 15.483 18.25 16.281 18.25 17C18.25 17.72 17.733 18.517 16.578 19.177C15.444 19.825 13.827 20.25 12 20.25C10.173 20.25 8.556 19.825 7.422 19.177C6.267 18.517 5.75 17.72 5.75 17Z" fill="#818181"/>
</svg>
