<svg width="20" height="20" viewBox="0 0 20 20" fill="none" xmlns="http://www.w3.org/2000/svg">
<path fill-rule="evenodd" clip-rule="evenodd" d="M13.9426 12.4781L10.0147 8.55013L6.06907 12.4957L9.99699 16.4237L13.9426 12.4781ZM15.074 13.1852C15.4645 12.7946 15.4645 12.1615 15.074 11.771L10.7218 7.41876C10.3313 7.02824 9.69809 7.02824 9.30756 7.41876L4.93769 11.7886C4.54717 12.1792 4.54717 12.8123 4.93769 13.2028L9.28989 17.555C9.68041 17.9456 10.3136 17.9456 10.7041 17.555L15.074 13.1852Z" fill="#1A7171"/>
<path fill-rule="evenodd" clip-rule="evenodd" d="M1.12159 2.64747C1.43142 2.46614 1.82957 2.57031 2.0109 2.88014C3.61922 5.62821 6.77288 7.0485 9.99998 7.0485C13.2271 7.0485 16.3807 5.62821 17.9891 2.88014C18.1704 2.57031 18.5685 2.46614 18.8784 2.64747C19.1882 2.82879 19.2924 3.22695 19.111 3.53677C17.2156 6.77542 13.5711 8.3485 9.99998 8.3485C6.42888 8.3485 2.78435 6.77542 0.888922 3.53677C0.707597 3.22695 0.811766 2.82879 1.12159 2.64747Z" fill="#1A7171"/>
</svg>
