<svg width="16" height="16" viewBox="0 0 16 16" fill="none" xmlns="http://www.w3.org/2000/svg">
<mask id="path-1-inside-1_1924_1417" fill="white">
<path fill-rule="evenodd" clip-rule="evenodd" d="M12.3287 4.62333C12.4285 4.71051 12.4897 4.83379 12.4987 4.96606C12.5077 5.09833 12.4638 5.22875 12.3767 5.32866L7.13867 11.3287C7.09174 11.3824 7.03384 11.4255 6.96887 11.455C6.9039 11.4846 6.83336 11.4998 6.762 11.4998C6.69064 11.4998 6.6201 11.4846 6.55513 11.455C6.49016 11.4255 6.43227 11.3824 6.38533 11.3287L4.29 8.92866C4.20595 8.82835 4.16458 8.69908 4.17478 8.5686C4.18497 8.43813 4.24591 8.31685 4.34452 8.23081C4.44313 8.14476 4.57155 8.10081 4.7022 8.10839C4.83286 8.11596 4.95533 8.17446 5.04333 8.27133L6.762 10.24L11.6233 4.67133C11.7105 4.57146 11.8338 4.51029 11.9661 4.50129C12.0983 4.49229 12.2288 4.53619 12.3287 4.62333Z"/>
</mask>
<path fill-rule="evenodd" clip-rule="evenodd" d="M12.3287 4.62333C12.4285 4.71051 12.4897 4.83379 12.4987 4.96606C12.5077 5.09833 12.4638 5.22875 12.3767 5.32866L7.13867 11.3287C7.09174 11.3824 7.03384 11.4255 6.96887 11.455C6.9039 11.4846 6.83336 11.4998 6.762 11.4998C6.69064 11.4998 6.6201 11.4846 6.55513 11.455C6.49016 11.4255 6.43227 11.3824 6.38533 11.3287L4.29 8.92866C4.20595 8.82835 4.16458 8.69908 4.17478 8.5686C4.18497 8.43813 4.24591 8.31685 4.34452 8.23081C4.44313 8.14476 4.57155 8.10081 4.7022 8.10839C4.83286 8.11596 4.95533 8.17446 5.04333 8.27133L6.762 10.24L11.6233 4.67133C11.7105 4.57146 11.8338 4.51029 11.9661 4.50129C12.0983 4.49229 12.2288 4.53619 12.3287 4.62333Z" fill="#282828"/>
<path d="M12.3287 4.62333L12.9863 3.86998L12.986 3.86971L12.3287 4.62333ZM12.3767 5.32866L13.13 5.98631L13.1303 5.98598L12.3767 5.32866ZM7.13867 11.3287L6.38534 10.671L6.38533 10.671L7.13867 11.3287ZM6.38533 11.3287L7.13867 10.671L7.13864 10.671L6.38533 11.3287ZM4.29 8.92866L3.52349 9.57089L3.53002 9.57868L3.5367 9.58634L4.29 8.92866ZM5.04333 8.27133L5.79665 7.61367L5.79014 7.60622L5.78349 7.59889L5.04333 8.27133ZM6.762 10.24L6.00868 10.8977L6.76201 11.7606L7.51533 10.8976L6.762 10.24ZM11.6233 4.67133L12.3767 5.32897L12.3767 5.32895L11.6233 4.67133ZM11.6711 5.37668C11.5712 5.2895 11.51 5.16622 11.501 5.03395L13.4964 4.89816C13.4694 4.50136 13.2859 4.13153 12.9863 3.86998L11.6711 5.37668ZM11.501 5.03395C11.492 4.90169 11.5359 4.77126 11.6231 4.67135L13.1303 5.98598C13.3917 5.68625 13.5234 5.29496 13.4964 4.89816L11.501 5.03395ZM11.6233 4.67101L6.38534 10.671L7.89199 11.9863L13.13 5.98631L11.6233 4.67101ZM6.38533 10.671C6.43226 10.6173 6.49016 10.5742 6.55513 10.5446L7.38261 12.3654C7.57752 12.2769 7.75121 12.1476 7.892 11.9863L6.38533 10.671ZM6.55513 10.5446C6.6201 10.5151 6.69064 10.4998 6.762 10.4998V12.4998C6.97609 12.4998 7.1877 12.454 7.38261 12.3654L6.55513 10.5446ZM6.762 10.4998C6.83336 10.4998 6.9039 10.5151 6.96887 10.5446L6.14139 12.3654C6.3363 12.454 6.54791 12.4998 6.762 12.4998V10.4998ZM6.96887 10.5446C7.03384 10.5742 7.09174 10.6173 7.13867 10.671L5.632 11.9863C5.77279 12.1476 5.94648 12.2769 6.14139 12.3654L6.96887 10.5446ZM7.13864 10.671L5.0433 8.27099L3.5367 9.58634L5.63203 11.9863L7.13864 10.671ZM5.05651 8.28643C5.14056 8.38675 5.18193 8.51602 5.17174 8.64649L3.17781 8.49071C3.14723 8.88213 3.27134 9.26995 3.52349 9.57089L5.05651 8.28643ZM5.17174 8.64649C5.16154 8.77697 5.1006 8.89825 5.00199 8.98429L3.68706 7.47732C3.39123 7.73545 3.2084 8.09929 3.17781 8.49071L5.17174 8.64649ZM5.00199 8.98429C4.90338 9.07033 4.77496 9.11429 4.64431 9.10671L4.7601 7.11006C4.36814 7.08733 3.98289 7.21919 3.68706 7.47732L5.00199 8.98429ZM4.64431 9.10671C4.51366 9.09913 4.39118 9.04063 4.30318 8.94377L5.78349 7.59889C5.51948 7.30829 5.15205 7.13279 4.7601 7.11006L4.64431 9.10671ZM4.29002 8.92899L6.00868 10.8977L7.51532 9.58234L5.79665 7.61367L4.29002 8.92899ZM7.51533 10.8976L12.3767 5.32897L10.87 4.01369L6.00867 9.58235L7.51533 10.8976ZM12.3767 5.32895C12.2895 5.42882 12.1662 5.48998 12.034 5.49898L11.8982 3.5036C11.5014 3.5306 11.1315 3.71409 10.87 4.01371L12.3767 5.32895ZM12.034 5.49898C11.9017 5.50799 11.7713 5.46409 11.6714 5.37695L12.986 3.86971C12.6863 3.60829 12.295 3.4766 11.8982 3.5036L12.034 5.49898Z" fill="white" mask="url(#path-1-inside-1_1924_1417)"/>
</svg>
