<svg width="64" height="40" viewBox="0 0 64 40" fill="none" xmlns="http://www.w3.org/2000/svg">
<g opacity="0.4">
<path d="M24.0416 19.7962L19.0919 14.8464L14.1421 19.7962L19.0919 24.7459L24.0416 19.7962Z" fill="#9C8787"/>
<path d="M43.8406 19.7962L38.8909 14.8464L33.9411 19.7962L38.8909 24.7459L43.8406 19.7962Z" fill="#9C8787"/>
<path d="M48.79 14.847L43.8402 9.89722L38.8909 14.8464L43.8406 19.7962L48.79 14.847Z" fill="#9C8787"/>
<path d="M48.79 24.7454L43.8406 19.7962L38.8909 24.7459L43.8402 29.6951L48.79 24.7454Z" fill="#9C8787"/>
<path d="M28.9912 14.847L24.0414 9.89722L19.0919 14.8464L24.0416 19.7962L28.9912 14.847Z" fill="#9C8787"/>
<path d="M38.8906 4.94853L33.9408 -0.0012207L28.9911 4.94853L33.9408 9.89827L38.8906 4.94853Z" fill="#9C8787"/>
<path d="M33.9408 9.89827L28.9911 4.94853L24.0414 9.89722L28.9912 14.847L33.9408 9.89827Z" fill="#9C8787"/>
<path d="M28.9912 24.7454L24.0416 19.7962L19.0919 24.7459L24.0414 29.6951L28.9912 24.7454Z" fill="#9C8787"/>
<path d="M38.8906 34.6438L33.9408 29.6941L28.9911 34.6438L33.9408 39.5936L38.8906 34.6438Z" fill="#9C8787"/>
<path d="M33.9408 29.6941L28.9912 24.7454L24.0414 29.6951L28.9911 34.6438L33.9408 29.6941Z" fill="#9C8787"/>
<path d="M63.6396 19.7962L58.6899 14.8464L53.7401 19.7962L58.6899 24.7459L63.6396 19.7962Z" fill="#9C8787"/>
<path d="M9.89949 19.7962L4.94975 14.8464L0 19.7962L4.94975 24.7459L9.89949 19.7962Z" fill="#9C8787"/>
</g>
</svg>
