<svg width="200" height="200" viewBox="0 0 200 200" fill="none" xmlns="http://www.w3.org/2000/svg">
<ellipse cx="100" cy="99.9994" rx="100" ry="99.9994" fill="#EBE7E7"/>
<path d="M124.904 44.9998H75.0962C68.4797 44.9998 65.1742 44.9998 62.5122 46.6443C59.8557 48.2833 58.3762 51.2423 55.4172 57.1603L47.7007 76.6798C45.9132 81.1898 44.3567 86.5028 47.3597 90.3143C48.775 92.1107 50.715 93.4213 52.9099 94.0638C55.1047 94.7063 57.4453 94.6487 59.6059 93.8991C61.7665 93.1494 63.6397 91.745 64.965 89.8811C66.2902 88.0173 67.0016 85.7868 67.0002 83.4998C67.0002 86.4172 68.1591 89.2151 70.222 91.278C72.2849 93.3409 75.0828 94.4998 78.0002 94.4998C80.9175 94.4998 83.7154 93.3409 85.7783 91.278C87.8412 89.2151 89.0002 86.4172 89.0002 83.4998C89.0002 86.4172 90.1591 89.2151 92.222 91.278C94.2849 93.3409 97.0828 94.4998 100 94.4998C102.918 94.4998 105.715 93.3409 107.778 91.278C109.841 89.2151 111 86.4172 111 83.4998C111 86.4172 112.159 89.2151 114.222 91.278C116.285 93.3409 119.083 94.4998 122 94.4998C124.918 94.4998 127.715 93.3409 129.778 91.278C131.841 89.2151 133 86.4172 133 83.4998C133 85.7863 133.712 88.016 135.038 89.879C136.363 91.742 138.237 93.1455 140.397 93.8945C142.557 94.6434 144.897 94.7005 147.092 94.0579C149.286 93.4153 151.226 92.1048 152.641 90.3088C155.644 86.4973 154.082 81.1843 152.3 76.6743L144.578 57.1603C141.619 51.2423 140.145 48.2833 137.483 46.6443C134.826 44.9998 131.515 44.9998 124.904 44.9998Z" fill="#333333"/>
<path fill-rule="evenodd" clip-rule="evenodd" d="M144 150.875H155C156.094 150.875 157.143 151.309 157.917 152.083C158.69 152.857 159.125 153.906 159.125 155C159.125 156.094 158.69 157.143 157.917 157.917C157.143 158.69 156.094 159.125 155 159.125H45C43.906 159.125 42.8568 158.69 42.0832 157.917C41.3096 157.143 40.875 156.094 40.875 155C40.875 153.906 41.3096 152.857 42.0832 152.083C42.8568 151.309 43.906 150.875 45 150.875H56V102.75C60.092 102.75 63.8815 101.474 67 99.3013C70.2258 101.553 74.0663 102.757 78 102.75C82.092 102.75 85.8815 101.474 89 99.3013C92.2258 101.553 96.0663 102.757 100 102.75C104.092 102.75 107.882 101.474 111 99.3013C114.226 101.553 118.066 102.757 122 102.75C126.092 102.75 129.882 101.474 133 99.3013C136.226 101.553 140.066 102.757 144 102.75V150.875ZM86.25 150.875H113.75V135.75C113.75 130.607 113.75 128.039 112.645 126.125C111.921 124.869 110.88 123.825 109.625 123.1C107.711 122 105.143 122 100 122C94.8575 122 92.289 122 90.375 123.1C89.1202 123.825 88.0788 124.869 87.3555 126.125C86.25 128.039 86.25 130.607 86.25 135.75V150.875Z" fill="#333333"/>
</svg>
