<svg width="200" height="200" viewBox="0 0 200 200" fill="none" xmlns="http://www.w3.org/2000/svg">
<g id="default user pic">
<circle id="Ellipse 251" cx="100" cy="100" r="100" fill="#EBE7E7"/>
<g id="Vector">
<path fill-rule="evenodd" clip-rule="evenodd" d="M115.343 51.9145C115.171 53.7886 116.551 55.4473 118.425 55.6192C120.729 55.8305 122.585 57.1852 124.033 60.8358C125.541 64.6386 126.308 70.3348 126.405 77.8281C126.5 85.081 125.475 92.5967 124.457 96.2465C123.947 98.0728 123.439 99.4346 123.071 100.315C122.887 100.755 122.739 101.075 122.643 101.273C122.595 101.371 122.561 101.439 122.542 101.476L122.525 101.507L122.528 101.502L122.53 101.499M122.525 101.507C121.628 103.154 122.229 105.218 123.872 106.124C125.521 107.032 127.593 106.432 128.502 104.784L125.56 103.163C128.502 104.784 128.503 104.781 128.503 104.781L128.504 104.779L128.508 104.773L128.515 104.759L128.535 104.722C128.55 104.693 128.57 104.656 128.593 104.612C128.64 104.522 128.701 104.4 128.776 104.246C128.925 103.938 129.126 103.502 129.361 102.94C129.83 101.817 130.432 100.19 131.021 98.0778C132.201 93.8504 133.324 85.6883 133.22 77.7396C133.12 70.0314 132.349 63.3153 130.368 58.3228C128.327 53.1782 124.743 49.3545 119.048 48.8322C117.173 48.6603 115.515 50.0403 115.343 51.9145M122.525 101.507C122.527 101.504 122.529 101.501 122.531 101.497L122.525 101.507Z" fill="#333333"/>
<path fill-rule="evenodd" clip-rule="evenodd" d="M85.5047 51.9145C85.6766 53.7886 84.2966 55.4473 82.4224 55.6192C80.1181 55.8305 78.2628 57.1852 76.8147 60.8358C75.3062 64.6386 74.5395 70.3348 74.4422 77.8281C74.348 85.081 75.373 92.5967 76.3911 96.2465C76.9005 98.0728 77.409 99.4346 77.7765 100.315C77.9602 100.755 78.1087 101.075 78.2044 101.273C78.2522 101.371 78.2868 101.439 78.306 101.476L78.3223 101.507L78.3196 101.502L78.3176 101.499M78.3223 101.507C79.2198 103.154 78.6191 105.218 76.9754 106.124C75.327 107.032 73.2544 106.432 72.3461 104.784L75.2875 103.163C72.346 104.784 72.3447 104.781 72.3447 104.781L72.3433 104.779L72.3401 104.773L72.3324 104.759L72.3125 104.722C72.2971 104.693 72.2777 104.656 72.2544 104.612C72.2079 104.522 72.1462 104.4 72.0715 104.246C71.9222 103.938 71.7212 103.502 71.4868 102.94C71.0179 101.817 70.4154 100.19 69.8262 98.0778C68.647 93.8504 67.524 85.6883 67.6272 77.7396C67.7273 70.0314 68.4989 63.3153 70.4794 58.3228C72.5201 53.1782 76.1044 49.3545 81.8 48.8322C83.6742 48.6603 85.3328 50.0403 85.5047 51.9145M78.3223 101.507C78.3202 101.504 78.3186 101.501 78.3164 101.497L78.3223 101.507Z" fill="#333333"/>
<path d="M111.533 30.3713C111.533 35.547 106.369 39.7427 99.9995 39.7427C93.6294 39.7427 88.4655 35.547 88.4655 30.3713C88.4655 25.1957 93.6294 21 99.9995 21C106.369 21 111.533 25.1957 111.533 30.3713Z" fill="#333333"/>
<path d="M126.074 174.905C126.074 177.258 122.641 179.165 118.407 179.165C114.172 179.165 110.739 177.258 110.739 174.905C110.739 172.553 114.172 170.645 118.407 170.645C122.641 170.645 126.074 172.553 126.074 174.905Z" fill="#333333"/>
<path d="M97.5706 174.905C97.5706 177.258 94.1378 179.165 89.9031 179.165C85.6685 179.165 82.2357 177.258 82.2357 174.905C82.2357 172.553 85.6685 170.645 89.9031 170.645C94.1378 170.645 97.5706 172.553 97.5706 174.905Z" fill="#333333"/>
<path d="M96.5922 37.1503H103.408V52.1891H96.5922V37.1503Z" fill="#333333"/>
<path d="M79.7425 53.0835C78.8506 51.0565 80.3352 48.7813 82.5498 48.7813H117.45C119.665 48.7813 121.149 51.0565 120.257 53.0835L103.408 91.3783H96.5922L79.7425 53.0835Z" fill="#333333"/>
<path d="M133.7 155.151C134.666 157.186 133.182 159.534 130.929 159.534H69.0707C66.8178 159.534 65.3337 157.186 66.3004 155.151L96.5922 91.3783H103.408L133.7 155.151Z" fill="#333333"/>
<path fill-rule="evenodd" clip-rule="evenodd" d="M85.6201 153.284C87.5022 153.284 89.0279 154.809 89.0279 156.692L89.0279 174.842C89.0279 176.724 87.5022 178.25 85.6201 178.25C83.7381 178.25 82.2124 176.724 82.2124 174.842L82.2124 156.692C82.2124 154.809 83.7381 153.284 85.6201 153.284Z" fill="#333333"/>
<path fill-rule="evenodd" clip-rule="evenodd" d="M114.127 153.284C116.009 153.284 117.535 154.809 117.535 156.692V174.842C117.535 176.724 116.009 178.25 114.127 178.25C112.245 178.25 110.719 176.724 110.719 174.842V156.692C110.719 154.809 112.245 153.284 114.127 153.284Z" fill="#333333"/>
</g>
</g>
</svg>
