<svg width="56" height="56" viewBox="0 0 56 56" fill="none" xmlns="http://www.w3.org/2000/svg">
<path d="M27.998 16.1621C37.1239 16.1621 44.547 23.5862 44.547 32.7111C44.547 41.836 37.1239 49.2601 27.998 49.2601C18.872 49.2601 11.4489 41.837 11.4489 32.7111C11.4489 23.5852 18.8731 16.1621 27.998 16.1621ZM27.998 12.0139C16.5667 12.0139 7.30078 21.2798 7.30078 32.7111C7.30078 44.1424 16.5667 53.4083 27.998 53.4083C39.4292 53.4083 48.6952 44.1424 48.6952 32.7111C48.6952 21.2798 39.4292 12.0139 27.998 12.0139Z" fill="#E3E2E1"/>
<path fill-rule="evenodd" clip-rule="evenodd" d="M27.9998 13.0507C17.1418 13.0507 8.3397 21.8528 8.3397 32.7108C8.3397 43.5688 17.1418 52.371 27.9998 52.371C38.8578 52.371 47.66 43.5688 47.66 32.7108C47.66 21.8528 38.8578 13.0507 27.9998 13.0507ZM6.26562 32.7108C6.26562 20.7074 15.9964 10.9766 27.9998 10.9766C40.0033 10.9766 49.7341 20.7074 49.7341 32.7108C49.7341 44.7143 40.0033 54.4451 27.9998 54.4451C15.9964 54.4451 6.26562 44.7143 6.26562 32.7108Z" fill="#333333"/>
<path d="M31.825 7.822H23.873L22.8359 2.59222H32.862L31.825 7.822Z" fill="#C1DCDE"/>
<path fill-rule="evenodd" clip-rule="evenodd" d="M38.0585 1.66553C38.5703 1.92265 38.7767 2.54596 38.5196 3.05775L35.1492 9.76634C34.8921 10.2781 34.2688 10.4846 33.757 10.2275C33.2452 9.97033 33.0388 9.34702 33.2959 8.83523L36.6663 2.12664C36.9234 1.61486 37.5467 1.40841 38.0585 1.66553ZM22.0355 1.93407C22.2325 1.69419 22.5265 1.55516 22.8369 1.55516H32.863C33.1734 1.55516 33.4675 1.69419 33.6644 1.93407C33.8614 2.17394 33.9406 2.48944 33.8802 2.79391L32.8432 8.02368C32.7469 8.5092 32.3209 8.85901 31.826 8.85901H23.874C23.379 8.85901 22.953 8.5092 22.8567 8.02368L21.8197 2.79391C21.7593 2.48944 21.8385 2.17394 22.0355 1.93407ZM24.0998 3.62923L24.7256 6.78493H30.9744L31.6001 3.62923H24.0998ZM17.4839 1.66654C17.9957 1.40945 18.619 1.61594 18.8761 2.12774L22.2464 8.83736C22.5035 9.34916 22.297 9.97247 21.7852 10.2296C21.2734 10.4866 20.6501 10.2802 20.393 9.76835L17.0227 3.05873C16.7656 2.54693 16.9721 1.92362 17.4839 1.66654Z" fill="#333333"/>
</svg>
