<svg width="72" height="72" viewBox="0 0 72 72" fill="none" xmlns="http://www.w3.org/2000/svg">
<path fill-rule="evenodd" clip-rule="evenodd" d="M45.6393 1.52081C46.2088 2.08818 46.2088 3.01031 45.6393 3.57768L3.81588 45.2455C3.24938 45.8099 2.33315 45.8099 1.76666 45.2455C1.19717 44.6781 1.19717 43.756 1.76666 43.1886L43.5901 1.52081C44.1566 0.956422 45.0728 0.956423 45.6393 1.52081Z" fill="#333333"/>
<path fill-rule="evenodd" clip-rule="evenodd" d="M70.9673 45.2455C70.4008 45.8098 69.4846 45.8098 68.9181 45.2455L27.0946 3.57767C26.5251 3.0103 26.5251 2.08817 27.0946 1.5208C27.6611 0.956411 28.5774 0.956413 29.1439 1.5208L70.9673 43.1886C71.5368 43.756 71.5368 44.6781 70.9673 45.2455Z" fill="#333333"/>
<path fill-rule="evenodd" clip-rule="evenodd" d="M45.6393 70.4792C46.2088 69.9118 46.2088 68.9897 45.6393 68.4223L3.81588 26.7545C3.24938 26.1901 2.33315 26.1901 1.76666 26.7545C1.19717 27.3219 1.19717 28.244 1.76666 28.8114L43.5901 70.4792C44.1566 71.0435 45.0728 71.0435 45.6393 70.4792Z" fill="#333333"/>
<path fill-rule="evenodd" clip-rule="evenodd" d="M70.9673 26.7545C70.4008 26.1902 69.4846 26.1902 68.9181 26.7545L27.0946 68.4223C26.5251 68.9897 26.5251 69.9118 27.0946 70.4792C27.6611 71.0436 28.5774 71.0436 29.1439 70.4792L70.9673 28.8114C71.5368 28.244 71.5368 27.3219 70.9673 26.7545Z" fill="#333333"/>
<path fill-rule="evenodd" clip-rule="evenodd" d="M44.905 1.52081C45.4745 2.08818 45.4745 3.01032 44.905 3.57768L3.0815 45.2455C2.51501 45.8099 1.59878 45.8099 1.03228 45.2455C0.462792 44.6781 0.462793 43.756 1.03228 43.1886L42.8557 1.52081C43.4222 0.956423 44.3385 0.956423 44.905 1.52081Z" fill="#B23636"/>
<path fill-rule="evenodd" clip-rule="evenodd" d="M70.233 45.2455C69.6665 45.8098 68.7502 45.8098 68.1837 45.2455L26.3603 3.57767C25.7908 3.0103 25.7908 2.08817 26.3603 1.5208C26.9267 0.956411 27.843 0.956413 28.4095 1.5208L70.233 43.1886C70.8024 43.756 70.8024 44.6781 70.233 45.2455Z" fill="#B23636"/>
<path fill-rule="evenodd" clip-rule="evenodd" d="M44.905 70.4792C45.4745 69.9118 45.4745 68.9897 44.905 68.4223L3.0815 26.7545C2.51501 26.1901 1.59878 26.1901 1.03228 26.7545C0.462792 27.3219 0.462793 28.244 1.03228 28.8114L42.8557 70.4792C43.4222 71.0435 44.3385 71.0435 44.905 70.4792Z" fill="#B23636"/>
<path fill-rule="evenodd" clip-rule="evenodd" d="M70.233 26.7545C69.6665 26.1902 68.7502 26.1902 68.1837 26.7545L26.3603 68.4223C25.7908 68.9897 25.7908 69.9118 26.3603 70.4792C26.9268 71.0436 27.843 71.0436 28.4095 70.4792L70.233 28.8114C70.8024 28.244 70.8024 27.3219 70.233 26.7545Z" fill="#B23636"/>
<path d="M27.9754 36.3615C28.6649 36.3615 29.2865 36.4913 29.84 36.751C30.3936 37.0106 30.8307 37.388 31.1511 37.883C31.4716 38.378 31.6319 38.9744 31.6319 39.6722C31.6319 40.3701 31.4716 40.9706 31.1511 41.4737C30.8307 41.9687 30.3936 42.346 29.84 42.6057C29.2865 42.8654 28.6649 42.9952 27.9754 42.9952C27.4024 42.9952 26.9022 42.9019 26.4749 42.7152C26.0914 42.5405 25.4406 42.8018 25.4406 43.2233V44.6887C25.4406 44.8896 25.3204 45.071 25.1353 45.1492L24.5876 45.3809L24.4819 36.4715H25.335C25.335 36.7809 25.7926 36.9611 26.0608 36.807C26.5775 36.51 27.2342 36.3615 27.9754 36.3615ZM27.888 41.7658C28.5678 41.7658 29.1165 41.5751 29.5341 41.1937C29.9517 40.8124 30.1605 40.3052 30.1605 39.6722C30.1605 39.0393 29.9517 38.5362 29.5341 38.1629C29.1165 37.7815 28.5678 37.5908 27.888 37.5908C26.2564 37.5908 25.4406 38.2846 25.4406 39.6722C25.4406 41.068 26.2564 41.7658 27.888 41.7658Z" fill="#333333"/>
<path d="M36.504 41.8267C37.1159 41.8267 37.582 41.7415 37.9025 41.5711C38.1183 41.4544 38.2864 41.2996 38.4068 41.1067C38.5238 40.9193 38.7094 40.7677 38.9304 40.7677H39.4414C39.7545 40.7677 39.9916 41.0563 39.8545 41.3379C39.7556 41.5411 39.6245 41.7365 39.4613 41.9241C39.1602 42.273 38.7523 42.553 38.2376 42.7639C37.7326 42.9668 37.1547 43.0682 36.504 43.0682C35.7368 43.0682 35.0715 42.9222 34.5082 42.63C33.9546 42.3379 33.5322 41.9403 33.2408 41.4372C32.9495 40.926 32.8038 40.3498 32.8038 39.7088C32.8038 39.0677 32.9495 38.4956 33.2408 37.9925C33.5322 37.4813 33.9546 37.0837 34.5082 36.7997C35.0715 36.5075 35.7368 36.3615 36.504 36.3615C37.6112 36.3615 38.4949 36.686 39.1553 37.3352C39.7264 37.8966 40.0506 38.6916 40.1278 39.7202C40.1485 39.9956 39.9221 40.22 39.646 40.22H34.8796C34.5757 40.22 34.3337 40.4942 34.4495 40.7752C34.564 41.0534 34.7342 41.2741 34.9598 41.4372C35.3289 41.6969 35.8436 41.8267 36.504 41.8267ZM36.504 37.5908C35.8436 37.5908 35.3289 37.7247 34.9598 37.9925C34.7235 38.164 34.5489 38.3954 34.436 38.6867C34.3276 38.9665 34.5686 39.2341 34.8687 39.2341H38.1165C38.4143 39.2341 38.655 38.9709 38.5578 38.6893C38.4436 38.3587 38.2592 38.1142 38.0045 37.956C37.6354 37.7126 37.1353 37.5908 36.504 37.5908Z" fill="#333333"/>
<path d="M47.7081 36.4451C48.0098 36.4012 48.2803 36.6351 48.2803 36.9399V42.1971C48.2803 42.3805 48.1798 42.5492 48.0186 42.6367L47.4472 42.9465V41.219C47.4472 40.9429 47.2234 40.719 46.9472 40.719H43.6968C42.9005 40.719 42.3275 40.5649 41.9778 40.2565C41.6282 39.9481 41.4534 39.4491 41.4534 38.7593V36.9832C41.4534 36.707 41.6773 36.4832 41.9534 36.4832H42.4248C42.7009 36.4832 42.9248 36.707 42.9248 36.9832V38.3455C42.9248 38.7188 42.9587 38.9825 43.0267 39.1367C43.0947 39.2827 43.2258 39.3801 43.4201 39.4288C43.624 39.4775 43.9688 39.5018 44.4544 39.5018H46.9472C47.2234 39.5018 47.4472 39.278 47.4472 39.0018V37.9925V36.4832L47.7081 36.4451Z" fill="#333333"/>
<path d="M50.6344 36.4832L50.917 36.443C51.2181 36.4001 51.4875 36.6338 51.4875 36.938V42.1938C51.4875 42.379 51.3851 42.549 51.2215 42.6356L50.6344 42.9465V36.4832Z" fill="#333333"/>
<path d="M33.3235 32.7226C33.6028 32.7226 33.8279 32.9513 33.8235 33.2306L33.784 35.6837C33.7809 35.8773 33.6663 36.0518 33.4897 36.1314L32.9786 36.362V34.4276C32.9786 34.1514 32.7547 33.9276 32.4786 33.9276H25.835C25.5588 33.9276 25.335 34.1514 25.335 34.4276V36.4715H24.4819V33.1922C24.4819 32.9238 24.7063 32.7098 24.9744 32.7226C25.3726 32.7226 25.6494 32.6536 25.8048 32.5156C25.9699 32.3696 26.0816 32.0531 26.1398 31.5662C26.1981 31.0793 26.2272 30.2435 26.2272 29.0588V27.9642C26.2272 27.6881 26.4511 27.4642 26.7272 27.4642H31.8894C32.1655 27.4642 32.3894 27.6881 32.3894 27.9642V32.2226C32.3894 32.4987 32.6133 32.7226 32.8894 32.7226H33.3235ZM30.4181 32.7226C30.6942 32.7226 30.9181 32.4987 30.9181 32.2226V29.1693C30.9181 28.8931 30.6942 28.6693 30.4181 28.6693H28.1172C27.9021 28.6693 27.7277 28.8437 27.7277 29.0588C27.7277 30.0082 27.6986 30.771 27.6403 31.3471C27.62 31.5846 27.5912 31.8028 27.554 32.002C27.4883 32.3529 27.7426 32.7226 28.0995 32.7226H30.4181Z" fill="#333333"/>
<path d="M38.2538 34.0493C37.4769 34.0493 37.0073 33.9114 36.4537 33.6355C35.9001 33.3514 35.4777 32.9579 35.1863 32.4548C34.8949 31.9435 34.7493 31.3552 34.7493 30.6898C34.7493 30.0325 34.8949 29.4523 35.1863 28.9492C35.4777 28.438 35.9001 28.0444 36.4537 27.7685C37.0073 27.4845 37.6725 27.3425 38.4495 27.3425C39.2264 27.3425 39.8917 27.4845 40.4453 27.7685C41.0086 28.0444 41.4359 28.438 41.7272 28.9492C42.0186 29.4523 42.1643 30.0325 42.1643 30.6898C42.1643 31.3552 42.0186 31.9435 41.7272 32.4548C41.4359 32.9579 41.0086 33.3514 40.4453 33.6355C39.8917 33.9114 39.0308 34.0493 38.2538 34.0493ZM38.4495 32.8078C39.1584 32.8078 39.7072 32.6211 40.0956 32.2478C40.4938 31.8665 40.6929 31.3471 40.6929 30.6898C40.6929 30.0244 40.4938 29.5051 40.0956 29.1318C39.7072 28.7585 39.1584 28.5719 38.4495 28.5719C37.7502 28.5719 37.2015 28.7626 36.8033 29.144C36.4149 29.5173 36.2206 30.0325 36.2206 30.6898C36.2206 31.3471 36.4149 31.8665 36.8033 32.2478C37.2015 32.6211 37.7502 32.8078 38.4495 32.8078Z" fill="#333333"/>
<path d="M27.1224 36.3615C27.8119 36.3615 28.4334 36.4913 28.987 36.751C29.5406 37.0106 29.9776 37.388 30.2981 37.883C30.6186 38.378 30.7789 38.9744 30.7789 39.6722C30.7789 40.3701 30.6186 40.9706 30.2981 41.4737C29.9776 41.9687 29.5406 42.346 28.987 42.6057C28.4334 42.8654 27.8119 42.9952 27.1224 42.9952C26.5494 42.9952 26.0492 42.9019 25.6219 42.7152C25.2383 42.5405 24.5876 42.8018 24.5876 43.2233V45.3809H23.6162C23.3401 45.3809 23.1162 45.1571 23.1162 44.8809V36.4715H24.4819C24.4819 36.7809 24.9395 36.9611 25.2078 36.807C25.7245 36.51 26.3812 36.3615 27.1224 36.3615ZM27.0349 41.7658C27.7148 41.7658 28.2635 41.5751 28.6811 41.1937C29.0987 40.8124 29.3075 40.3052 29.3075 39.6722C29.3075 39.0393 29.0987 38.5362 28.6811 38.1629C28.2635 37.7815 27.7148 37.5908 27.0349 37.5908C25.4034 37.5908 24.5876 38.2846 24.5876 39.6722C24.5876 41.068 25.4034 41.7658 27.0349 41.7658Z" fill="#B23636"/>
<path d="M35.651 41.8267C36.2628 41.8267 36.729 41.7415 37.0495 41.5711C37.2653 41.4544 37.4334 41.2996 37.5538 41.1067C37.6708 40.9193 37.8564 40.7677 38.0773 40.7677H38.5884C38.9015 40.7677 39.1386 41.0563 39.0015 41.3379C38.9026 41.5411 38.7715 41.7365 38.6082 41.9241C38.3072 42.273 37.8993 42.553 37.3846 42.7639C36.8795 42.9668 36.3017 43.0682 35.651 43.0682C34.8838 43.0682 34.2185 42.9222 33.6552 42.63C33.1016 42.3379 32.6792 41.9403 32.3878 41.4372C32.0964 40.926 31.9508 40.3498 31.9508 39.7088C31.9508 39.0677 32.0964 38.4956 32.3878 37.9925C32.6792 37.4813 33.1016 37.0837 33.6552 36.7997C34.2185 36.5075 34.8838 36.3615 35.651 36.3615C36.7581 36.3615 37.6419 36.686 38.3023 37.3352C38.8734 37.8966 39.1976 38.6916 39.2748 39.7202C39.2955 39.9956 39.0691 40.22 38.7929 40.22H34.0266C33.7227 40.22 33.4807 40.4942 33.5964 40.7752C33.711 41.0534 33.8811 41.2741 34.1068 41.4372C34.4759 41.6969 34.9906 41.8267 35.651 41.8267ZM35.651 37.5908C34.9906 37.5908 34.4759 37.7247 34.1068 37.9925C33.8705 38.164 33.6959 38.3954 33.583 38.6867C33.4746 38.9665 33.7156 39.2341 34.0156 39.2341H37.2634C37.5613 39.2341 37.8019 38.9709 37.7047 38.6893C37.5906 38.3587 37.4061 38.1142 37.1515 37.956C36.7824 37.7126 36.2823 37.5908 35.651 37.5908Z" fill="#B23636"/>
<path d="M47.4472 36.4832V42.9465H46.4759C46.1998 42.9465 45.9759 42.7227 45.9759 42.4465V41.219C45.9759 40.9429 45.752 40.719 45.4759 40.719H42.8438C42.0475 40.719 41.4745 40.5649 41.1248 40.2565C40.7752 39.9481 40.6004 39.4491 40.6004 38.7593V36.9832C40.6004 36.707 40.8242 36.4832 41.1004 36.4832H41.5717C41.8479 36.4832 42.0717 36.707 42.0717 36.9832V38.3455C42.0717 38.7188 42.1057 38.9825 42.1737 39.1367C42.2417 39.2827 42.3728 39.3801 42.567 39.4288C42.771 39.4775 43.1158 39.5018 43.6013 39.5018H45.4759C45.752 39.5018 45.9759 39.278 45.9759 39.0018V36.9832C45.9759 36.707 46.1998 36.4832 46.4759 36.4832H47.4472Z" fill="#B23636"/>
<path d="M32.4786 32.7226C32.7547 32.7226 32.9786 32.9464 32.9786 33.2226V36.362H32.1093C31.8448 36.362 31.626 36.1559 31.6102 35.8919L31.5208 34.3977C31.505 34.1336 31.2863 33.9276 31.0217 33.9276H24.9819C24.7058 33.9276 24.4819 34.1514 24.4819 34.4276V36.4715H23.1162V33.2226C23.1162 32.9464 23.3401 32.7226 23.6162 32.7226H24.1214C24.5196 32.7226 24.7964 32.6536 24.9518 32.5156C25.1169 32.3696 25.2285 32.0531 25.2868 31.5662C25.3451 31.0793 25.3742 30.2435 25.3742 29.0588V27.9642C25.3742 27.6881 25.5981 27.4642 25.8742 27.4642H31.0364C31.3125 27.4642 31.5364 27.6881 31.5364 27.9642V32.2226C31.5364 32.4987 31.7602 32.7226 32.0364 32.7226H32.4786ZM29.565 32.7226C29.8412 32.7226 30.065 32.4987 30.065 32.2226V29.1693C30.065 28.8931 29.8412 28.6693 29.565 28.6693H27.2642C27.0491 28.6693 26.8747 28.8437 26.8747 29.0588C26.8747 30.0082 26.8456 30.771 26.7873 31.3471C26.767 31.5846 26.7382 31.8028 26.7009 32.002C26.6353 32.3529 26.8896 32.7226 27.2465 32.7226H29.565Z" fill="#B23636"/>
<path d="M37.5965 34.0493C36.8195 34.0493 36.1543 33.9114 35.6007 33.6355C35.0471 33.3514 34.6246 32.9579 34.3333 32.4548C34.0419 31.9435 33.8962 31.3552 33.8962 30.6898C33.8962 30.0325 34.0419 29.4523 34.3333 28.9492C34.6246 28.438 35.0471 28.0444 35.6007 27.7685C36.1543 27.4845 36.8195 27.3425 37.5965 27.3425C38.3734 27.3425 39.0387 27.4845 39.5923 27.7685C40.1555 28.0444 40.5829 28.438 40.8742 28.9492C41.1656 29.4523 41.3113 30.0325 41.3113 30.6898C41.3113 31.3552 41.1656 31.9435 40.8742 32.4548C40.5829 32.9579 40.1555 33.3514 39.5923 33.6355C39.0387 33.9114 38.3734 34.0493 37.5965 34.0493ZM37.5965 32.8078C38.3054 32.8078 38.8542 32.6211 39.2426 32.2478C39.6408 31.8665 39.8399 31.3471 39.8399 30.6898C39.8399 30.0244 39.6408 29.5051 39.2426 29.1318C38.8542 28.7585 38.3054 28.5719 37.5965 28.5719C36.8972 28.5719 36.3485 28.7626 35.9503 29.144C35.5618 29.5173 35.3676 30.0325 35.3676 30.6898C35.3676 31.3471 35.5618 31.8665 35.9503 32.2478C36.3485 32.6211 36.8972 32.8078 37.5965 32.8078Z" fill="#B23636"/>
<path d="M50.2516 35.3703C50.0283 35.3703 49.834 35.3054 49.6689 35.1756C49.5135 35.0457 49.4358 34.8875 49.4358 34.7009C49.4358 34.5223 49.5135 34.3682 49.6689 34.2383C49.834 34.1085 50.0283 34.0436 50.2516 34.0436C50.4653 34.0436 50.6547 34.1085 50.8198 34.2383C50.9849 34.3682 51.0674 34.5223 51.0674 34.7009C51.0674 34.8875 50.9849 35.0457 50.8198 35.1756C50.6547 35.3054 50.4653 35.3703 50.2516 35.3703Z" fill="#333333"/>
<path fill-rule="evenodd" clip-rule="evenodd" d="M49.8551 36.4832H49.5757C49.2995 36.4832 49.0757 36.707 49.0757 36.9832V42.4465C49.0757 42.7227 49.2995 42.9465 49.5757 42.9465H49.8551H50.6344V36.4832H49.8551Z" fill="#B23636"/>
<path d="M49.8624 35.3755C49.639 35.3755 49.4447 35.3106 49.2796 35.1808C49.1243 35.0509 49.0466 34.8927 49.0466 34.7061C49.0466 34.5275 49.1243 34.3734 49.2796 34.2435C49.4447 34.1137 49.639 34.0488 49.8624 34.0488C50.076 34.0488 50.2654 34.1137 50.4305 34.2435C50.5956 34.3734 50.6781 34.5275 50.6781 34.7061C50.6781 34.8927 50.5956 35.0509 50.4305 35.1808C50.2654 35.3106 50.076 35.3755 49.8624 35.3755Z" fill="#B23636"/>
</svg>
