<svg width="10" height="10" viewBox="0 0 10 10" fill="none" xmlns="http://www.w3.org/2000/svg">
<path d="M3.8145 2.25325C4.34242 1.30659 4.60617 0.833252 5.00075 0.833252C5.39533 0.833252 5.65908 1.30659 6.187 2.25325L6.32367 2.49825C6.47367 2.76742 6.54867 2.902 6.66533 2.99075C6.782 3.0795 6.92783 3.11242 7.2195 3.17825L7.4845 3.23825C8.5095 3.47034 9.02158 3.58617 9.14367 3.97825C9.26533 4.36992 8.91617 4.77867 8.21741 5.59575L8.03658 5.807C7.83825 6.03909 7.73867 6.15534 7.69408 6.29867C7.6495 6.44242 7.6645 6.59742 7.6945 6.907L7.722 7.18909C7.82742 8.2795 7.88033 8.8245 7.56117 9.06659C7.242 9.30909 6.762 9.08784 5.80283 8.64617L5.55408 8.532C5.28158 8.40617 5.14533 8.34367 5.00075 8.34367C4.85617 8.34367 4.71992 8.40617 4.447 8.532L4.19908 8.64617C3.2395 9.08784 2.7595 9.30867 2.44075 9.067C2.12117 8.8245 2.17408 8.2795 2.2795 7.18909L2.307 6.90742C2.337 6.59742 2.352 6.44242 2.307 6.29909C2.26283 6.15534 2.16325 6.03909 1.96492 5.80742L1.78408 5.59575C1.08533 4.77909 0.736166 4.37034 0.857832 3.97825C0.979916 3.58617 1.49242 3.46992 2.51742 3.23825L2.78242 3.17825C3.07367 3.11242 3.21908 3.0795 3.33617 2.99075C3.45283 2.902 3.52783 2.76742 3.67783 2.49825L3.8145 2.25325Z" fill="#E3E2E1"/>
</svg>
