<svg width="40" height="26" viewBox="0 0 40 26" fill="none" xmlns="http://www.w3.org/2000/svg">
<g clip-path="url(#clip0_1741_30316)">
<path d="M25.2667 12.5L28.3 9.49976L31.3333 12.5L28.3 15.5002L25.2667 12.5Z" fill="#EBE7E7"/>
<path d="M13.1333 12.5L16.1667 9.49976L19.2 12.5L16.1667 15.5002L13.1333 12.5Z" fill="#EBE7E7"/>
<path d="M10.1002 9.50008L13.1336 6.49984L16.1667 9.49976L13.1333 12.5L10.1002 9.50008Z" fill="#EBE7E7"/>
<path d="M10.1002 15.4999L13.1333 12.5L16.1667 15.5002L13.1336 18.5002L10.1002 15.4999Z" fill="#EBE7E7"/>
<path d="M22.2335 9.50008L25.2668 6.49984L28.3 9.49976L25.2667 12.5L22.2335 9.50008Z" fill="#EBE7E7"/>
<path d="M16.1668 3.50024L19.2002 0.5L22.2335 3.50024L19.2002 6.50048L16.1668 3.50024Z" fill="#EBE7E7"/>
<path d="M19.2002 6.50048L22.2335 3.50024L25.2668 6.49984L22.2335 9.50008L19.2002 6.50048Z" fill="#EBE7E7"/>
<path d="M22.2335 15.4999L25.2667 12.5L28.3 15.5002L25.2668 18.5002L22.2335 15.4999Z" fill="#EBE7E7"/>
<path d="M16.1668 21.4998L19.2002 18.4995L22.2335 21.4998L19.2002 24.5L16.1668 21.4998Z" fill="#EBE7E7"/>
<path d="M19.2002 18.4995L22.2335 15.4999L25.2668 18.5002L22.2335 21.4998L19.2002 18.4995Z" fill="#EBE7E7"/>
<path d="M0.999999 12.5L4.03333 9.49976L7.06667 12.5L4.03333 15.5002L0.999999 12.5Z" fill="#EBE7E7"/>
<path d="M33.9333 12.5L36.9667 9.49975L40 12.5L36.9667 15.5002L33.9333 12.5Z" fill="#EBE7E7"/>
</g>
<defs>
<clipPath id="clip0_1741_30316">
<rect width="40" height="25" fill="white" transform="matrix(-1 0 0 1 40 0.5)"/>
</clipPath>
</defs>
</svg>
